<?xml version="1.0" encoding="iso-8859-1"?>
<!-- Generator: Adobe Illustrator 16.0.0, SVG Export Plug-In . SVG Version: 6.00 Build 0)  -->
<!DOCTYPE svg PUBLIC "-//W3C//DTD SVG 1.1//EN" "http://www.w3.org/Graphics/SVG/1.1/DTD/svg11.dtd">
<svg version="1.1" id="Capa_1" xmlns="http://www.w3.org/2000/svg" xmlns:xlink="http://www.w3.org/1999/xlink" x="0px" y="0px"
	 width="24px" height="24px" viewBox="0 0 24 24" style="enable-background:new 0 0 24 24;" xml:space="preserve">
<g>
	<path d="M20.8,0H3.2C1.4,0,0,1.4,0,3.2v17.6C0,22.6,1.4,24,3.2,24h17.6c1.8,0,3.2-1.4,3.2-3.2V3.2C24,1.4,22.6,0,20.8,0z M3.2,2
		h17.6C21.5,2,22,2.5,22,3.2V8h-5.079C15.662,6.761,13.93,6,12,6c-1.93,0-3.662,0.761-4.921,2H2V3.2C2,2.5,2.5,2,3.2,2z M17,13
		c0,2.8-2.2,5-5,5s-5-2.2-5-5s2.2-5,5-5S17,10.2,17,13z M18.814,11.408c0.014,0.054,0.028,0.105,0.041,0.16
		C18.846,11.514,18.828,11.462,18.814,11.408z M18.913,11.939c0.017,0.112,0.039,0.221,0.051,0.334
		C18.952,12.161,18.93,12.051,18.913,11.939z M5.037,12.273c0.011-0.113,0.033-0.223,0.05-0.334
		C5.07,12.051,5.048,12.161,5.037,12.273z M5.144,11.568c0.011-0.055,0.028-0.106,0.041-0.161
		C5.172,11.462,5.155,11.514,5.144,11.568z M17,6.7V3.3C17,3.1,17.1,3,17.3,3h3.4C20.9,3,21,3.1,21,3.3v3.4C21,6.9,20.9,7,20.7,7
		h-3.4C17.1,7,17,6.9,17,6.7z M15,13c0,1.7-1.3,3-3,3s-3-1.3-3-3c0-0.3,0.1-0.6,0.1-0.9c0.3,0.5,0.8,0.9,1.4,0.9
		c0.8,0,1.5-0.7,1.5-1.5c0-0.6-0.4-1.2-0.9-1.4c0.3,0,0.6-0.1,0.9-0.1C13.7,10,15,11.3,15,13z"/>
</g>
<g>
</g>
<g>
</g>
<g>
</g>
<g>
</g>
<g>
</g>
<g>
</g>
<g>
</g>
<g>
</g>
<g>
</g>
<g>
</g>
<g>
</g>
<g>
</g>
<g>
</g>
<g>
</g>
<g>
</g>
</svg>
