<?xml version="1.0" encoding="utf-8"?>
<!-- Generator: Adobe Illustrator 16.0.0, SVG Export Plug-In . SVG Version: 6.00 Build 0)  -->
<!DOCTYPE svg PUBLIC "-//W3C//DTD SVG 1.1//EN" "http://www.w3.org/Graphics/SVG/1.1/DTD/svg11.dtd">
<svg version="1.1" id="Capa_1" xmlns="http://www.w3.org/2000/svg" xmlns:xlink="http://www.w3.org/1999/xlink" x="0px" y="0px"
	 width="50px" height="50px" viewBox="125 0 50 50" enable-background="new 125 0 50 50" xml:space="preserve">
<g>
	<g>
		<path fill="#030104" d="M169.139,11.146c2.244-1.377,3.73-3.258,4.459-5.649c-2.184,1.158-4.358,1.953-6.531,2.392
			c-1.952-2.1-4.424-3.166-7.388-3.166c-2.897,0-5.345,1.017-7.341,2.994c-1.986,1.991-2.989,4.41-2.989,7.235
			c0,0.858,0.108,1.625,0.325,2.275c-8.544-0.292-15.616-3.836-21.188-10.658c-0.944,1.669-1.417,3.369-1.417,5.128
			c0,3.613,1.525,6.477,4.569,8.58c-1.736-0.147-3.267-0.587-4.569-1.306c0,2.58,0.758,4.735,2.278,6.632
			c1.525,1.879,3.483,3.076,5.875,3.586c-0.867,0.223-1.78,0.328-2.719,0.328c-0.867,0-1.48-0.072-1.844-0.23
			c0.639,2.104,1.844,3.809,3.586,5.113c1.736,1.312,3.733,2.003,5.977,2.064c-3.7,2.902-7.93,4.338-12.716,4.338
			c-1.172,0-2.002-0.016-2.505-0.105c4.714,3.062,9.96,4.58,15.766,4.58c5.941,0,11.191-1.505,15.76-4.516
			c4.57-2.994,7.941-6.688,10.108-11.039c2.178-4.343,3.255-8.865,3.255-13.587v-1.3c2.105-1.584,3.809-3.367,5.111-5.336
			C173.111,10.313,171.158,10.866,169.139,11.146z"/>
	</g>
</g>
</svg>
