<?xml version="1.0" encoding="utf-8"?>
<!-- Generator: Adobe Illustrator 16.0.0, SVG Export Plug-In . SVG Version: 6.00 Build 0)  -->
<!DOCTYPE svg PUBLIC "-//W3C//DTD SVG 1.1//EN" "http://www.w3.org/Graphics/SVG/1.1/DTD/svg11.dtd">
<svg version="1.1" id="Layer_1" xmlns="http://www.w3.org/2000/svg" xmlns:xlink="http://www.w3.org/1999/xlink" x="0px" y="0px"
	 width="300px" height="50px" viewBox="0 0 300 50" enable-background="new 0 0 300 50" xml:space="preserve">
<linearGradient id="SVGID_1_" gradientUnits="userSpaceOnUse" x1="150.0005" y1="50" x2="150.0005" y2="4.882813e-004">
	<stop  offset="0" style="stop-color:#0075BE"/>
	<stop  offset="0.5674" style="stop-color:#1E9CD7"/>
	<stop  offset="0.9944" style="stop-color:#005B97"/>
</linearGradient>
<polygon fill="url(#SVGID_1_)" points="300,50 150,45 0,50 60,25 0,0 150,5 300,0 240,25 "/>
<g>
	<path fill="#FFFFFF" d="M84.106,30.478c1.007,0.517,2.555,1.032,4.152,1.032c1.72,0,2.628-0.713,2.628-1.793
		c0-1.032-0.786-1.622-2.776-2.334c-2.751-0.958-4.545-2.481-4.545-4.889c0-2.825,2.358-4.987,6.265-4.987
		c1.867,0,3.243,0.393,4.226,0.835l-0.835,3.021c-0.663-0.319-1.842-0.786-3.464-0.786s-2.408,0.737-2.408,1.597
		c0,1.057,0.934,1.523,3.071,2.334c2.924,1.081,4.299,2.604,4.299,4.938c0,2.776-2.137,5.135-6.682,5.135
		c-1.892,0-3.759-0.492-4.692-1.008L84.106,30.478z"/>
	<path fill="#FFFFFF" d="M101.153,34.335l-5.306-16.558h4.103l2.015,7.001c0.565,1.966,1.081,3.857,1.474,5.921h0.074
		c0.418-1.99,0.934-3.955,1.499-5.847l2.113-7.075h3.98l-5.577,16.558H101.153z"/>
	<path fill="#FFFFFF" d="M126.502,33.573c-1.155,0.394-3.341,0.934-5.528,0.934c-3.021,0-5.208-0.762-6.731-2.235
		c-1.523-1.425-2.358-3.587-2.334-6.019c0.024-5.503,4.029-8.648,9.458-8.648c2.137,0,3.783,0.417,4.594,0.811l-0.786,2.997
		c-0.909-0.393-2.039-0.712-3.857-0.712c-3.12,0-5.479,1.769-5.479,5.355c0,3.415,2.137,5.43,5.208,5.43
		c0.86,0,1.548-0.099,1.843-0.246v-3.464h-2.555v-2.923h6.167V33.573z"/>
	<path fill="#FFFFFF" d="M134.383,17.998c0.982-0.196,2.972-0.344,4.839-0.344c2.285,0,3.685,0.221,4.889,0.934
		c1.155,0.614,1.99,1.744,1.99,3.243c0,1.474-0.86,2.85-2.727,3.538v0.049c1.892,0.516,3.292,1.941,3.292,4.078
		c0,1.499-0.688,2.678-1.72,3.514c-1.204,0.958-3.218,1.498-6.51,1.498c-1.842,0-3.218-0.123-4.053-0.245V17.998z M138.093,24.336
		h1.228c1.965,0,3.022-0.811,3.022-2.039c0-1.253-0.958-1.917-2.653-1.917c-0.811,0-1.277,0.049-1.597,0.099V24.336z
		 M138.093,31.682c0.368,0.049,0.811,0.049,1.449,0.049c1.695,0,3.194-0.639,3.194-2.383c0-1.67-1.499-2.334-3.366-2.334h-1.277
		V31.682z"/>
	<path fill="#FFFFFF" d="M160.421,30.478c0,1.572,0.049,2.851,0.098,3.857h-3.242l-0.173-1.695h-0.073
		c-0.467,0.737-1.597,1.966-3.759,1.966c-2.432,0-4.226-1.523-4.226-5.233v-7.05h3.759v6.461c0,1.744,0.565,2.801,1.867,2.801
		c1.032,0,1.621-0.713,1.867-1.303c0.099-0.221,0.123-0.516,0.123-0.811v-7.149h3.759V30.478z"/>
	<path fill="#FFFFFF" d="M167.591,18.882v3.439h2.678v2.751h-2.678v4.349c0,1.449,0.344,2.112,1.474,2.112
		c0.467,0,0.836-0.049,1.106-0.098l0.024,2.825c-0.491,0.196-1.376,0.319-2.433,0.319c-1.203,0-2.211-0.418-2.801-1.032
		c-0.688-0.713-1.031-1.867-1.031-3.563v-4.913h-1.597v-2.751h1.597v-2.604L167.591,18.882z"/>
	<path fill="#FFFFFF" d="M176.604,18.882v3.439h2.678v2.751h-2.678v4.349c0,1.449,0.344,2.112,1.474,2.112
		c0.467,0,0.836-0.049,1.106-0.098l0.024,2.825c-0.491,0.196-1.376,0.319-2.433,0.319c-1.203,0-2.211-0.418-2.801-1.032
		c-0.688-0.713-1.031-1.867-1.031-3.563v-4.913h-1.597v-2.751h1.597v-2.604L176.604,18.882z"/>
	<path fill="#FFFFFF" d="M193.186,28.193c0,4.397-3.12,6.412-6.338,6.412c-3.514,0-6.216-2.31-6.216-6.191
		c0-3.881,2.555-6.362,6.412-6.362C190.729,22.052,193.186,24.582,193.186,28.193z M184.489,28.316c0,2.063,0.859,3.611,2.456,3.611
		c1.45,0,2.383-1.45,2.383-3.611c0-1.794-0.688-3.611-2.383-3.611C185.152,24.705,184.489,26.547,184.489,28.316z"/>
	<path fill="#FFFFFF" d="M195.492,26.154c0-1.499-0.05-2.776-0.099-3.833h3.243l0.172,1.646h0.073
		c0.491-0.762,1.72-1.916,3.71-1.916c2.456,0,4.299,1.621,4.299,5.159v7.124h-3.734v-6.657c0-1.548-0.54-2.604-1.892-2.604
		c-1.031,0-1.646,0.712-1.892,1.4c-0.098,0.221-0.147,0.59-0.147,0.934v6.928h-3.733V26.154z"/>
</g>
</svg>
